<?xml version="1.0" standalone="no"?>
<!DOCTYPE svg PUBLIC "-//W3C//DTD SVG 20010904//EN"
 "http://www.w3.org/TR/2001/REC-SVG-20010904/DTD/svg10.dtd">
<svg version="1.0" xmlns="http://www.w3.org/2000/svg"
 width="1080.000000pt" height="964.000000pt" viewBox="0 0 1080.000000 964.000000"
 preserveAspectRatio="xMidYMid meet">

<g transform="translate(0.000000,964.000000) scale(0.100000,-0.100000)"
fill="#fb3d3f" stroke="none">
<path d="M5175 9421 c-44 -16 -177 -70 -295 -120 -118 -50 -264 -112 -325
-138 -60 -25 -128 -54 -150 -64 -22 -9 -107 -45 -190 -79 -82 -34 -163 -68
-180 -75 -54 -24 -167 -72 -355 -150 -102 -42 -204 -86 -227 -96 -23 -10 -44
-19 -47 -19 -3 0 -29 -11 -58 -24 -29 -13 -78 -34 -108 -46 -30 -12 -74 -31
-98 -42 -24 -10 -76 -32 -115 -47 -74 -30 -268 -112 -322 -136 -16 -7 -113
-48 -215 -90 -102 -42 -209 -88 -238 -101 -29 -13 -55 -24 -58 -24 -3 0 -24
-9 -47 -19 -23 -11 -139 -60 -257 -109 -450 -188 -796 -333 -815 -342 -221
-100 -241 -114 -283 -194 -22 -42 -27 -64 -27 -126 0 -64 5 -83 27 -120 56
-96 83 -112 393 -240 378 -156 440 -182 490 -205 28 -12 61 -26 75 -30 24 -7
50 -18 155 -65 25 -11 47 -20 51 -20 3 0 30 -11 60 -25 30 -14 57 -25 60 -25
3 0 24 -9 47 -19 38 -17 1161 -484 1367 -568 47 -19 139 -57 205 -85 66 -27
147 -61 180 -75 33 -13 69 -29 80 -34 11 -5 52 -21 90 -37 112 -46 347 -143
380 -157 90 -40 743 -308 781 -321 62 -21 158 -19 219 5 69 26 127 50 460 191
160 67 360 151 445 187 85 36 174 74 197 84 23 10 44 19 48 19 3 0 24 9 48 19
61 28 158 69 367 156 102 42 199 83 215 90 17 8 48 21 70 30 22 9 137 58 255
107 118 50 240 100 270 113 52 22 250 105 905 380 154 65 314 132 355 150 41
17 143 60 225 94 83 35 164 69 180 76 17 7 64 28 105 45 115 49 152 69 188
103 86 81 110 212 59 313 -46 91 -103 129 -332 222 -112 46 -347 143 -380 157
-16 8 -190 79 -385 160 -375 155 -745 308 -795 329 -81 34 -140 59 -255 107
-270 112 -352 146 -418 175 -29 13 -56 24 -61 24 -4 0 -21 6 -37 14 -16 8
-357 150 -759 316 -401 166 -743 308 -760 315 -186 83 -282 115 -339 115 -23
0 -77 -13 -121 -29z m159 -430 c3 -5 17 -12 31 -15 14 -4 51 -18 82 -32 31
-15 84 -37 117 -50 34 -12 99 -39 146 -59 47 -20 200 -84 340 -141 140 -58
269 -112 285 -119 17 -7 228 -95 470 -195 242 -100 454 -188 470 -195 17 -7
86 -37 155 -65 69 -28 150 -62 180 -74 30 -13 96 -40 145 -61 50 -20 104 -43
120 -50 17 -7 55 -23 85 -35 30 -12 73 -30 95 -40 22 -9 273 -113 557 -231
285 -117 520 -219 523 -227 3 -7 -7 -17 -23 -23 -15 -6 -94 -39 -177 -74 -159
-67 -329 -139 -547 -231 -73 -30 -146 -61 -163 -69 -16 -7 -113 -48 -215 -90
-102 -42 -204 -86 -227 -96 -23 -10 -44 -19 -47 -19 -3 0 -29 -11 -58 -24 -29
-13 -147 -64 -263 -112 -238 -99 -254 -105 -570 -239 -126 -53 -268 -113 -315
-132 -47 -19 -104 -44 -128 -54 -24 -11 -77 -33 -117 -49 -40 -16 -93 -38
-117 -48 -66 -30 -214 -93 -418 -177 -102 -42 -204 -86 -227 -96 -23 -10 -44
-19 -47 -19 -3 0 -34 -13 -68 -29 -104 -47 -100 -47 -213 4 -16 7 -293 122
-615 255 -322 133 -604 251 -627 261 -23 11 -44 19 -47 19 -3 0 -35 14 -71 30
-36 17 -68 30 -70 30 -4 0 -260 106 -555 230 -63 26 -351 146 -640 265 -289
119 -538 223 -555 230 -72 32 -225 95 -230 95 -2 0 -28 11 -58 24 -29 14 -78
34 -108 46 -78 30 -142 63 -146 76 -2 6 29 23 69 39 40 15 96 38 123 51 28 13
77 34 110 47 62 26 352 147 850 357 160 67 315 133 345 145 101 42 375 157
405 170 55 25 169 73 355 150 102 42 204 86 227 96 23 10 44 19 48 19 3 0 24
9 48 20 23 10 155 66 292 124 460 192 760 318 802 337 119 54 176 69 187 50z"/>
<path d="M9780 6641 c-14 -5 -104 -41 -200 -80 -96 -40 -213 -88 -260 -107
-47 -19 -116 -48 -155 -64 -38 -15 -205 -83 -370 -150 -165 -67 -320 -130
-345 -141 -25 -10 -184 -75 -355 -145 -170 -69 -329 -134 -352 -145 -24 -10
-45 -19 -49 -19 -5 0 -549 -221 -664 -270 -25 -10 -207 -85 -405 -165 -198
-81 -373 -152 -390 -160 -16 -7 -61 -25 -100 -40 -215 -85 -435 -179 -466
-201 -46 -31 -93 -97 -108 -149 -12 -45 -14 -2696 -2 -3750 7 -627 4 -592 54
-667 61 -90 220 -142 328 -107 41 14 283 111 689 277 168 68 350 142 405 164
55 22 114 46 130 53 39 17 558 229 650 265 39 15 235 96 438 179 202 83 370
151 372 151 3 0 24 9 48 19 23 10 166 69 317 130 151 62 284 116 295 121 11 5
119 49 240 98 458 185 504 205 550 241 28 20 61 59 78 90 l31 54 -3 2139 c-2
1820 -5 2147 -17 2188 -17 58 -89 142 -148 172 -45 24 -189 35 -236 19z m-59
-922 c3 -228 7 -1090 8 -1916 l1 -1503 -22 -14 c-22 -13 -270 -116 -653 -271
-299 -120 -677 -275 -722 -296 -24 -10 -45 -19 -49 -19 -7 0 -601 -243 -661
-271 -24 -10 -46 -19 -49 -19 -5 0 -197 -78 -1104 -450 -432 -177 -424 -174
-442 -168 -13 5 -16 240 -21 1915 -5 1782 -5 1909 11 1924 9 9 58 32 107 52
50 20 173 70 275 112 102 42 202 83 223 90 20 8 52 21 70 28 62 28 406 167
412 167 3 0 24 9 48 19 73 33 153 66 462 191 165 67 315 128 332 136 18 8 51
21 73 29 22 8 55 21 73 29 51 22 719 296 852 348 28 11 64 26 80 33 52 23 525
215 530 215 2 0 28 11 57 24 69 31 81 35 93 32 6 -2 12 -154 16 -417z"/>
<path d="M698 6623 c-106 -27 -191 -105 -218 -201 -11 -41 -12 -1748 -1 -3367
l6 -950 27 -51 c44 -83 90 -114 286 -194 97 -40 186 -76 197 -81 40 -17 722
-291 780 -314 33 -12 222 -88 420 -168 198 -80 511 -206 695 -280 184 -74 349
-140 365 -147 17 -7 39 -16 50 -20 11 -4 31 -12 45 -18 14 -6 156 -64 315
-128 160 -63 322 -128 360 -144 39 -15 140 -56 225 -90 85 -34 164 -66 175
-71 65 -29 258 -103 300 -116 145 -44 306 24 369 157 21 44 21 57 23 645 2
330 0 1298 -5 2150 l-7 1550 -23 50 c-27 59 -62 98 -117 130 -22 13 -177 78
-345 145 -168 67 -318 128 -335 135 -42 18 -230 94 -285 115 -25 10 -209 84
-410 165 -201 81 -396 160 -435 175 -81 32 -391 156 -420 169 -11 5 -90 37
-175 71 -85 33 -164 65 -175 70 -11 5 -171 70 -355 144 -184 74 -348 139 -365
146 -16 7 -39 16 -50 20 -111 44 -334 134 -350 141 -11 5 -105 43 -209 84
-212 85 -276 99 -358 78z m247 -1383 c22 -10 72 -30 110 -45 39 -16 93 -39
122 -52 28 -12 57 -23 64 -23 7 0 21 -7 31 -17 17 -15 18 -43 18 -468 0 -505
-4 -478 70 -505 19 -7 54 -21 77 -31 24 -11 45 -19 49 -19 3 0 30 -11 60 -25
30 -14 59 -25 64 -25 5 0 33 -11 62 -24 114 -52 451 -187 471 -189 l22 -2 5
450 c5 428 6 450 24 453 17 4 73 -13 141 -43 28 -12 115 -47 160 -65 78 -30
108 -46 121 -64 12 -17 14 -179 14 -1084 0 -700 -3 -1070 -10 -1082 -11 -20
-15 -20 -85 10 -22 9 -105 43 -185 75 -80 32 -153 65 -162 73 -16 14 -18 51
-20 460 -3 383 -5 446 -18 453 -22 12 -89 41 -235 99 -166 66 -161 64 -216 89
-26 11 -59 23 -73 27 -14 3 -29 10 -32 15 -3 5 -12 9 -19 9 -8 0 -38 11 -67
24 -118 52 -189 78 -203 72 -13 -5 -15 -62 -15 -436 0 -382 -2 -431 -16 -437
-8 -3 -25 -1 -37 5 -12 6 -95 40 -185 75 -89 36 -174 72 -187 81 l-25 16 0
1078 c0 827 3 1081 12 1090 13 13 30 10 93 -18z m2145 -873 c19 -8 57 -23 83
-35 27 -12 52 -22 56 -22 4 0 31 -11 59 -25 29 -14 58 -25 66 -25 8 0 18 -4
21 -10 3 -5 13 -10 21 -10 8 0 37 -11 66 -25 28 -14 56 -25 60 -25 5 0 33 -11
61 -24 29 -13 70 -30 92 -37 22 -7 45 -16 50 -20 6 -3 53 -25 105 -47 52 -22
124 -57 160 -77 36 -21 80 -46 99 -57 71 -40 179 -129 257 -209 75 -78 174
-213 174 -238 0 -6 4 -19 9 -29 41 -80 61 -177 61 -290 0 -104 -9 -140 -52
-213 -39 -66 -96 -103 -177 -114 l-52 -7 103 -102 c57 -56 108 -108 113 -116
55 -81 92 -160 126 -265 18 -55 18 -309 0 -355 -31 -81 -46 -106 -90 -150 -96
-95 -275 -117 -486 -58 -66 18 -129 38 -150 47 -11 5 -63 26 -115 46 -52 21
-108 43 -125 50 -26 11 -58 24 -165 67 -14 6 -38 16 -55 23 -59 24 -81 33
-135 55 -30 12 -68 28 -85 35 -16 7 -66 27 -109 45 -44 18 -88 37 -98 43 -17
11 -18 58 -18 1084 0 589 3 1078 6 1087 7 19 18 20 64 3z"/>
<path d="M3475 3849 c-3 -8 -4 -136 -3 -284 l3 -269 70 -30 c39 -16 94 -40
123 -52 29 -13 58 -24 66 -24 7 0 16 -3 20 -7 3 -4 23 -13 44 -20 173 -65 270
-56 322 29 25 41 27 161 5 226 -24 69 -90 157 -154 206 -33 25 -62 46 -65 46
-4 0 -23 10 -44 23 -20 13 -80 40 -132 61 -52 21 -119 49 -148 62 -29 13 -58
24 -65 24 -7 0 -18 5 -25 12 -9 9 -13 8 -17 -3z"/>
<path d="M3476 2972 c-4 -3 -6 -139 -6 -303 0 -297 0 -297 23 -311 12 -8 33
-19 47 -23 14 -4 43 -16 65 -25 22 -10 72 -30 110 -45 39 -15 89 -36 113 -47
116 -51 233 -74 282 -56 71 27 88 47 105 127 12 57 5 168 -14 216 -29 75 -71
142 -117 185 -29 27 -55 50 -58 50 -4 0 -23 10 -44 23 -20 13 -68 36 -107 51
-38 15 -79 32 -90 36 -11 4 -46 20 -78 34 -32 14 -64 26 -72 26 -7 0 -17 5
-20 10 -3 6 -13 10 -21 10 -8 0 -36 11 -64 24 -27 13 -51 21 -54 18z"/>
</g>
</svg>
